<svg viewBox="0 0 24 24" width="24" height="24" fill="currentColor"><path fill="none" d="M 0 0 h 24 v 24 H 0 z"/><path d="M 12 2 C 6.5 2 2 6.5 2 12 a 10 10 0 0 0 6.8 9.5 c 0.5 0.1 0.7 -0.2 0.7 -0.5 c 0 -0.2 0 -1 0 -1.9 c -2.5 0.5 -3.2 -0.6 -3.4 -1.2 c -0.1 -0.3 -0.6 -1.2 -1 -1.4 c -0.3 -0.2 -0.8 -0.7 0 -0.7 c 0.8 0 1.4 0.7 1.5 1 c 0.9 1.5 2.3 1.1 2.9 0.8 c 0.1 -0.7 0.3 -1.1 0.6 -1.3 c -2.2 -0.3 -4.5 -1.1 -4.5 -4.9 c 0 -1.1 0.4 -2 1 -2.7 c -0.1 -0.3 -0.5 -1.3 0.1 -2.6 c 0 0 0.8 -0.3 2.8 1 a 9.3 9.3 0 0 1 2.5 -0.3 c 0.8 0 1.7 0.1 2.5 0.3 c 1.9 -1.3 2.8 -1 2.8 -1 c 0.6 1.4 0.2 2.4 0.1 2.6 c 0.6 0.7 1 1.6 1 2.7 c 0 3.8 -2.3 4.7 -4.6 4.9 c 0.4 0.3 0.7 0.9 0.7 1.9 c 0 1.3 0 2.4 0 2.8 c 0 0.3 0.2 0.6 0.7 0.5 A 10 10 0 0 0 22 12 c 0 -5.5 -4.5 -10 -10 -10 z"/></svg>